<svg version="1.2" xmlns="http://www.w3.org/2000/svg" viewBox="0 0 42 42" width="42" height="42">
	<title>16</title>
	<style>
		.s0 { fill: #f8f8f8;stroke: #c9bea5;stroke-miterlimit:100;stroke-width: 2 } 
		.s1 { fill: #c9bea5 } 
	</style>
	<g id="16.svg">
		<path id="Эллипс 551" class="s0" d="m21 1c11 0 20 9 20 20 0 11-9 20-20 20-11 0-20-9-20-20 0-11 9-20 20-20z"/>
		<path id="Фигура 551" fill-rule="evenodd" class="s1" d="m21 31.8q-2.2 0-4.5 0c-1.6 0-2.9-1.1-3.1-2.7-0.2-1 0-2.1 0.5-3 1.1-2.5 3-3.8 5.8-3.9q1.5-0.1 2.9 0c2.9 0.2 5.4 2.3 5.9 5.1 0.1 0.5 0.2 1.1 0.2 1.6-0.2 1.7-1.5 2.9-3.2 2.9q-2.3 0-4.5 0zm0-1.7q2.2 0 4.5 0c0.8 0 1.5-0.6 1.5-1.4q0-0.3 0-0.6c-0.3-2.2-2.2-4.1-4.3-4.2q-1.5-0.1-3 0c-2.4 0-4.3 1.8-4.7 4.2-0.2 1.4 0.7 2 1.8 2 1.4-0.1 2.8 0 4.2 0zm0-8.5c-3 0-5.4-2.5-5.4-5.4 0-3 2.4-5.4 5.5-5.4 2.9 0.1 5.3 2.5 5.3 5.5 0 2.9-2.5 5.3-5.4 5.3zm0-9.1c-2 0-3.7 1.7-3.7 3.7 0 2 1.7 3.7 3.7 3.7 2.1 0 3.7-1.7 3.7-3.7 0-2-1.7-3.7-3.7-3.7z"/>
	</g>
</svg>