<svg version="1.2" xmlns="http://www.w3.org/2000/svg" viewBox="0 0 16 14" width="16" height="14">
	<title>10</title>
	<style>
		.s0 { fill: #c63800 } 
	</style>
	<path id="10.svg" class="s0" d="m15 3.8c-0.1 0.1-0.2 0.3-0.3 0.4q-3.6 3.8-7.2 7.6c-0.2 0.1-0.4 0.3-0.6 0.2q-0.1-0.1-0.3-0.2-2.2-2.3-4.4-4.7c-0.3-0.3-0.3-0.6 0-0.8q0.5-0.5 1-1.1 0.4-0.4 0.8 0 1.5 1.6 2.9 3.1 0.1 0.1 0.2 0.2 0-0.1 0.1-0.2 2.9-3 5.8-6.1c0.1-0.2 0.3-0.3 0.6-0.2q0.1 0.1 0.2 0.2 0.5 0.5 1 1.1 0.1 0.1 0.2 0.2 0 0.2 0 0.3z"/>
</svg>