<svg version="1.2" xmlns="http://www.w3.org/2000/svg" viewBox="0 0 26 25" width="26" height="25">
	<title>Фигура 1345 копия 6</title>
	<style>
		.s0 { fill: #c63800 } 
	</style>
	<path id="Фигура 1345 копия 6" class="s0" d="m2 13.9c0-1 0.5-1.7 1.4-2.1 0.9-0.4 1.7-0.2 2.4 0.4q1.7 1.5 3.4 3 0.3 0.2 0.6 0.5 0.5 0.4 0.9 0 3.6-4 7.2-8 2.5-2.7 4.9-5.4c0.2-0.3 0.5-0.4 0.8-0.3 0.2 0.1 0.4 0.3 0.4 0.6q0 0.2-0.1 0.4-2.8 4.4-5.6 8.8-3.2 5-6.4 10.1c-0.4 0.6-0.9 1-1.6 1.1q-1.2 0.2-2-0.8-2.7-3.2-5.4-6.5c-0.4-0.4-0.7-0.8-0.8-1.4q-0.1-0.2-0.1-0.4z"/>
</svg>