<svg version="1.2" xmlns="http://www.w3.org/2000/svg" viewBox="0 0 27 28" width="27" height="28">
	<title>лупа</title>
	<style>
		.s0 { fill: #333333 } 
	</style>
	<path id="лупа.svg" fill-rule="evenodd" class="s0" d="m11.9 2q0.7 0 1.3 0 0.2 0 0.3 0c1.1 0.1 2.2 0.4 3.3 0.9 3.8 1.8 5.9 4.7 6.3 8.9 0.2 1.9-0.2 3.8-1.1 5.5-0.4 0.7-0.8 1.4-1.3 2.1 0.1 0 0.1 0.1 0.2 0.1q2.3 2.3 4.6 4.6c0.2 0.2 0.3 0.5 0.5 0.7q0 0.2 0 0.4 0 0.1 0 0.1c-0.4 0.8-1.1 0.9-1.7 0.3q-2.1-2-4.2-4.1-0.4-0.4-0.8-0.8-0.1 0.1-0.2 0.2c-2.5 1.9-5.3 2.6-8.4 2.1-4.8-0.9-8.5-5-8.7-9.9-0.1-2.1 0.4-4.1 1.5-5.9q2.5-4.1 7.1-5 0.7-0.1 1.3-0.2zm9.3 10.6c0-4.8-3.9-8.7-8.6-8.6-4.8 0-8.6 3.8-8.6 8.6-0.1 4.7 3.8 8.6 8.6 8.6 4.7 0 8.6-3.9 8.6-8.6z"/>
</svg>