<?xml version="1.0" standalone="no"?>
<!DOCTYPE svg PUBLIC "-//W3C//DTD SVG 20010904//EN"
 "http://www.w3.org/TR/2001/REC-SVG-20010904/DTD/svg10.dtd">
<svg version="1.0" xmlns="http://www.w3.org/2000/svg"
 width="40.000000pt" height="40.000000pt" viewBox="0 0 40.000000 40.000000"
 preserveAspectRatio="xMidYMid meet">

<g transform="translate(0.000000,40.000000) scale(0.100000,-0.100000)"
fill="#000000" stroke="none">
<path d="M123 370 c-18 -10 -40 -32 -50 -47 -9 -15 -28 -38 -40 -50 -14 -14
-23 -33 -22 -50 0 -15 -2 -37 -6 -49 -8 -27 28 -74 45 -58 6 6 10 29 7 50 l-4
39 -1 -42 c-2 -46 -15 -55 -32 -24 -14 27 -13 37 6 55 8 9 11 16 5 16 -16 0
-13 36 3 49 12 10 15 7 19 -16 4 -26 4 -26 6 5 2 64 34 105 98 128 23 8 30 13
18 14 -11 0 -34 -9 -52 -20z"/>
<path d="M243 377 c49 -19 67 -35 86 -77 9 -19 23 -35 31 -35 8 0 17 -11 21
-25 6 -20 7 -21 8 -5 1 10 -8 28 -18 40 -11 11 -37 39 -58 63 -27 29 -48 44
-73 47 l-35 6 38 -14z"/>
<path d="M167 293 c18 -2 50 -2 70 0 21 2 7 4 -32 4 -38 0 -55 -2 -38 -4z"/>
<path d="M140 264 c59 -8 140 -8 140 -1 0 4 -37 6 -82 6 -46 -1 -72 -3 -58 -5z"/>
<path d="M129 192 c9 -7 10 -11 2 -15 -7 -4 -8 -5 0 -3 15 2 13 20 -3 24 -10
3 -10 2 1 -6z"/>
<path d="M260 185 c0 -9 5 -15 11 -13 6 2 11 8 11 13 0 5 -5 11 -11 13 -6 2
-11 -4 -11 -13z"/>
<path d="M352 170 c0 -14 2 -19 5 -12 2 6 2 18 0 25 -3 6 -5 1 -5 -13z"/>
<path d="M387 167 c6 -30 -24 -58 -38 -36 -7 11 -9 11 -9 -3 0 -23 22 -23 43
0 18 20 22 48 8 56 -4 3 -6 -5 -4 -17z"/>
<path d="M139 120 c-22 -24 -24 -32 -13 -41 7 -6 19 -9 26 -6 8 4 7 6 -4 6
-10 1 -18 3 -18 6 0 13 46 53 65 58 16 4 15 5 -5 5 -16 1 -35 -10 -51 -28z"/>
<path d="M236 128 c10 -13 24 -26 29 -30 6 -5 4 -12 -5 -18 -8 -5 -10 -10 -5
-10 6 0 16 4 23 9 10 6 6 15 -15 39 -31 36 -57 45 -27 10z"/>
<path d="M60 104 c0 -31 76 -94 112 -94 7 0 -6 9 -29 20 -25 11 -51 33 -63 52
-11 18 -20 28 -20 22z"/>
<path d="M316 74 c-10 -14 -36 -34 -59 -45 -23 -10 -36 -19 -29 -19 37 0 126
69 109 86 -2 3 -12 -7 -21 -22z"/>
<path d="M183 82 c-8 -5 2 -8 25 -9 28 0 32 1 17 7 -26 11 -28 11 -42 2z"/>
</g>
</svg>
