<!DOCTYPE svg PUBLIC "-//W3C//DTD SVG 1.1//EN" "http://www.w3.org/Graphics/SVG/1.1/DTD/svg11.dtd">
<!-- Uploaded to: SVG Repo, www.svgrepo.com, Transformed by: SVG Repo Mixer Tools -->
<svg fill="rgb(250, 101, 49)" height="800px" width="800px" version="1.1" id="Capa_1" xmlns="http://www.w3.org/2000/svg" xmlns:xlink="http://www.w3.org/1999/xlink" viewBox="0 0 297 297" xml:space="preserve">
<g id="SVGRepo_bgCarrier" stroke-width="0"/>
<g id="SVGRepo_tracerCarrier" stroke-linecap="round" stroke-linejoin="round"/>
<g id="SVGRepo_iconCarrier"> <path d="M72.531,96.936c-3.342,7.445-11.435,18.605-27.942,18.605c-4.348,0-7.872,3.523-7.872,7.872 c0,0.596,0.081,14.793,7.131,31.242c4.219,9.843,11.535,21.753,24.086,31.63c-23.646,13.727-40.139,54.744-40.139,77.249 c0,3.052,1.765,5.829,4.527,7.125c42.84,20.111,83.233,26.342,116.846,26.341c17.693,0,33.512-1.728,46.811-4.065 c41.886-7.363,68.113-21.923,69.21-22.538c2.479-1.395,4.015-4.019,4.015-6.862c0-22.409-16.354-63.173-39.839-77.071 c12.688-9.911,20.067-21.906,24.311-31.808c7.05-16.449,7.131-30.647,7.131-31.242c0-4.349-3.523-7.872-7.872-7.872 c-14.778,0-22.305-7.302-26.12-14.199c0.209-1.926,5.311-49.507-20.515-78.484C192.932,7.859,174.106,0.17,150.347,0.004L149.218,0 c-29.291,0-50.794,8.115-63.914,24.119C71.862,40.516,67.155,66.315,72.531,96.936z M148.492,236.777L107.151,195.5h7.236 c4.349,0,8.779-1.614,8.779-5.963V175.77c8,5.7,15.56,9.251,25.138,9.251c9.867,0,17.862-3.764,25.862-9.77v14.285 c0,4.349,5.146,5.963,9.494,5.963h6.173L148.492,236.777z M90.841,203.357l44.214,44.16c-4.946,2.961-10.618,4.541-16.535,4.541 c-8.61,0-16.706-4.127-22.796-10.209c-6.084-6.074-9.435-13.372-9.436-21.962C86.287,213.979,87.871,208.297,90.841,203.357z M209.868,101.861c-0.222,2.748-0.226,7.994-1.537,11.71c-2.116,5.999-5.174,9.168-6.569,10.083 c-1.628-0.535-3.395-0.528-5.034,0.04c-2.06,0.714-3.732,2.249-4.618,4.241c-8.475,19.071-24.939,41.342-43.446,41.342 c-18.547,0-35.024-22.337-43.498-41.465c-0.917-2.07-2.682-3.646-4.842-4.323c-1.688-0.528-3.489-0.47-5.121,0.141 c-1.412-0.945-4.436-4.111-6.534-10.057c-1.566-4.442-1.757-7.994-1.542-10.191c0.279-0.267,0.543-0.557,0.785-0.87 c0.224-0.289,21.004-27.165,34.593-44.638C134.56,60.007,171.779,70.502,209.868,101.861z M206.153,203.357 c2.968,4.939,4.554,10.601,4.553,16.51c0,8.591-3.351,15.906-9.436,21.982c-6.088,6.08-14.183,10.65-22.793,10.65h-0.002 c-5.917,0-11.59-3.581-16.536-6.542L206.153,203.357z M244.336,130.061c-1.988,12.433-9.412,37.439-37.044,50.439h-18.125v-20.955 c5-6.281,10.304-13.203,13.761-20.148c1.353-0.241,3.305-0.685,4.652-1.327c5.751-2.747,11.298-9.461,14.589-17.669 C227.624,125.184,235.079,128.625,244.336,130.061z M97.479,34.101c9.986-12.18,27.394-18.357,51.739-18.357l1.018,0.004 c19.092,0.133,33.983,6.032,44.263,17.531c12.825,14.351,16.428,34.771,17.264,48.738c-47.105-35.735-89.939-40.249-91.896-40.438 c-0.253-0.024-0.505-0.036-0.756-0.036c-2.413,0-4.71,1.109-6.21,3.035c-7.37,9.463-17.978,23.149-26.021,33.54 C85.51,59.14,89.056,44.377,97.479,34.101z M53.141,130.069c9.059-1.396,16.115-4.698,21.529-9.325 c2.122,5.163,5.069,9.852,8.438,13.104c3.171,3.064,7.493,4.989,10.961,5.524c3.623,7.273,9.099,14.59,14.099,21.095V180.5H90.213 C62.361,167.5,55.053,142.52,53.141,130.069z M193.253,277.429c-35.382,6.221-89.655,7.843-149.426-18.818 c2.145-19.572,16.025-48.528,30.772-58.035c-2.65,6.009-4.056,11.981-4.055,18.745c0.001,12.799,4.992,24.25,14.056,33.297 c9.061,9.051,21.107,15.186,33.92,15.186c11.045,0,21.516-5.979,30.002-12.798c8.476,6.787,18.927,12.495,29.952,12.495 c0.002,0,0.002,0,0.004,0c12.811,0,24.857-5.832,33.919-14.883c9.063-9.049,14.054-20.496,14.054-33.297 c0-6.762-1.405-13.308-4.055-19.315c14.807,9.54,28.74,38.974,30.802,58.553C244.515,262.725,223.084,272.184,193.253,277.429z"/> </g>
</svg>